<?xml version="1.0" encoding="UTF-8"?>
<svg id="Layer_1" data-name="Layer 1" xmlns="http://www.w3.org/2000/svg" viewBox="0 0 360 288">
  <defs>
    <style>
      .cls-1 {
        fill: #fff;
      }
    </style>
  </defs>
  <path class="cls-1" d="M0,0h360v288H0V0ZM103.13,127.03v15.42s18.71,0,18.71,0v-48.92s-29.1,0-29.1,0l-6.57,8.95-6.98-8.95h-40.08s0,95.2,0,95.2h38.14s0-52.55,0-52.55c-.91-1.26-.44-2.71-.22-4.03-.02-1.43-.22-2.63.49-4.16,3.83,2.64,7.16,5.42,10.65,8.17l9.29-12.16c1.59-.6,2.6-1.18,3.82-.17,1.27.35,1.72,1.69,1.87,3.2ZM179.63,93.68l-5.26-.15-.09,42.19c-.24,10.26-6.96,18.73-17.15,19.65-11.41,1.18-20.47-7.34-20.99-18.78l-.17-43.04-11.48-.06c-.39.38-.7.76-.98,1.28v48.11c5.33,1.43,9.7,4.8,12.92,9.18,4.45,5.47,7.85,11.57,9.65,18.38,1.18,6.05,2.06,11.84,1.89,18.27l31.65-.02v-95.01ZM214.41,186.22c5.54-2.78,7.83-8.25,7.6-14.23l.06-42.47,5.3-.06-.04-35.93h-47.17s-.04,36.01-.04,36.01h5.27s0,58.96,0,58.96l23.9-.05c1.91-.79,3.46-1.17,5.11-2.23ZM254.5,159.12l3.56-.63v-7.62c-1.58.12-2.37-.18-3.73-1.05-.13-.47-.08-1.22.16-1.92l-.07-18.37c2.92-.35,5.56-.3,8.69-.25l-.02-35.76h-34.27s0,35.95,0,35.95l3.36.05v59.01c1.23-.05,1.97,0,2.92.2h25.62s0-24.21,0-24.21h-6.25s.04-5.39.04-5.39ZM297.78,185.74c-.08,1.22.68,2.55,1.69,3h9.94s-.04-24.66-.04-24.66l-.74.08.29-.89c-.5-1.11-1.72-2.23-1.6-3.66l-2.62-6.07c.18-1.26-.43-2.61-1.21-3.51l-.12-1.45-.96.02.68-.56-.61-.49,2.97-5.46.97-.6-.02-1.09c.75-.52.79-1.17,1.09-1.84.67-1.07.44-2.62,1.88-3.04l.02-41.53h-7.37s-2.01,4.92-2.01,4.92l-.88.06-.26.76c.35.88-.26,1.61-1.19,1.8.37,1.25-.47,2.08-1.37,2.61.48,1.37-1.1,2.17-1.29,3.29l-.96.55.16,1.02c-.83.21-1.65.92-1.08,1.64l-1.4,2.38-.8.44.17.99c-.85.42-1.09.26-1.52-.34-.23-.34-.26-.87-.22-1.52-.87-.68-1.63-1.53-1.13-2.66-.94-.63-.92-1.68-1.31-2.53-2.09-4.43-3.23-8.86-5.36-13.39l-16.81-.02.05,18.96,3.94,8.3c.34,1.12.6,2.4,1.57,3.24l2.73,6.13c-.16.93.23,1.68,1.12,2.25,0,1.56.71,2.85,1.86,3.84-.37.55-.33,1.11.23,1.43.24.52.41.99.4,1.29l-1.08.91.23,1.06-.84-.08c-.02,1.18-.49,2.4-1.74,2.99-.26,2.55-1.97,4.31-3.26,6.19-.83,1.74-1.71,3.3-2.75,4.9-.43,1.11-.76,2.48-1.98,3.3-.27,1.21-.71,2.93-2.39,3.57l-.02,26,2.21.46,16.77-.02c.31-1.01.72-1.56,1.27-1.99,0-.63.2-1.25.53-1.88l.32-1.27,1.16-.3-.18-.93.87-.6c-.32-.97.09-1.91,1.27-2.39-.69-.82-.1-1.72.84-2.12l2.31-5.6c.67.08.8.17,1.41.64l.16,1.07c.54.52.98,1.18.94,1.96,1.06,1.22,1.7,2.98,2.02,4.65.7.42,1.03,1.07.84,1.78.86,1.21,1.54,2.55,2.16,3.99ZM131.12,188.72l14.17.02.56-2.16-.18-10.38c-1.3-7.82-4.17-15-9.29-20.93-3.31-3.6-6.92-6.7-11.45-8.49-3.75-1.71-7.58-2.78-11.74-2.33-4.61-.53-8.68.8-12.93,2.66-10.68,5.27-17.58,15.88-19.47,27.7-.82,4.49-.49,8.95-.2,13.89l14.43.03-.94-6.22h37.95s-.92,6.23-.92,6.23Z"/>
  <g>
    <g>
      <path d="M77.23,188.73h-38.14s0-95.2,0-95.2h40.08s6.98,8.94,6.98,8.94l6.57-8.95h29.11s0,48.92,0,48.92h-18.71c.35-5.92.21-10.74,0-14.18-.19-2.96-.41-4.51-1.4-4.98-2.29-1.1-6.96,4.34-8.35,6.02-1.75,2.29-3.49,4.57-5.24,6.86-3.49-2.76-6.82-5.53-10.65-8.17"/>
      <path d="M179.63,93.68v95.01s-31.66.02-31.66.02c.17-6.43-.71-12.23-1.89-18.27-1.8-6.81-5.19-12.92-9.65-18.38-3.22-4.38-7.59-7.75-12.92-9.18v-48.11c-.46-.29-.54-.91-.24-1.26.28-.32.84-.36,1.21-.02l11.48.06.17,43.04c.53,11.44,9.59,19.96,20.99,18.78,10.19-.92,16.91-9.39,17.15-19.65l.09-42.19,5.26.15Z"/>
      <path d="M130.83,188.73c.4-2.08.81-4.16,1.21-6.24h-37.95s.94,6.22.94,6.22c-4.92,0-9.83,0-14.75,0-.39-3.15-.66-8.1.52-13.92.74-3.65,4.75-20.92,19.47-27.7,2.69-1.24,7.03-2.74,12.92-2.78,3.03.02,7.25.48,11.74,2.45.66.29,3.64,1.62,6.97,4.25,2.06,1.63,3.53,3.18,4.47,4.24,9.67,10.88,9.59,25.66,9.47,29.37v4c-5.01.04-10.02.07-15.03.11ZM131.24,177.19c-2.53-8.66-10.19-13.6-18.37-13.7-8.3.2-15.51,5.63-17.96,13.72l36.33-.02Z"/>
    </g>
    <g>
      <path d="M209.52,188.45c-.09,0-.17,0-.22,0l-23.9.05v-58.97s-5.27,0-5.27,0l.04-36.01h47.17s.04,35.94.04,35.94l-5.3.06-.06,42.47c.05,1.6.03,6.84-3.64,11.26-.87,1.04-4.21,5.07-8.85,5.2ZM219.51,174.09c-.13-2.64.19-4.82-.83-6.9-1.81-4.46-5.46-7.36-10.09-8.69-6.68-1.36-13.04,2.28-15.82,8.69-3.17,7.83,1.89,16.49,10.31,18.63,7.36,1.48,15.12-3.97,16.43-11.74Z"/>
      <path class="cls-1" d="M219.51,174.09c-1.31,7.77-9.07,13.23-16.43,11.74-8.42-2.15-13.48-10.8-10.31-18.63,2.78-6.41,9.14-10.05,15.82-8.69,4.64,1.33,8.28,4.23,10.09,8.69,1.02,2.07.7,4.26.83,6.9Z"/>
      <g>
        <path d="M297.78,185.74l-7.53-14.09c-2.8,5.69-5.6,11.38-8.4,17.06-6.29,0-12.57.01-18.86.02-.03-8.82-.07-17.64-.1-26.46,4.6-7.61,9.2-15.23,13.8-22.84-3.95-8.83-7.91-17.65-11.86-26.48l-.05-18.96,16.81.02,8.61,20.65c3.95-6.89,7.89-13.78,11.84-20.67h7.37s-.02,41.53-.02,41.53c-2.3,4.01-4.6,8.02-6.9,12.03l6.89,16.52.04,24.64h-9.94c-.56-.98-1.12-1.98-1.69-2.98ZM306.64,139.08l-.12.12.12.12.12-.12-.12-.12Z"/>
        <path d="M232.17,188.53v-59.01s-3.36-.05-3.36-.05v-35.95s34.28,0,34.28,0l.02,35.76c-2.89-.01-5.79-.03-8.68-.04.02,6.22.04,12.44.06,18.66v2.89c1.19.03,2.39.06,3.59.08,0,2.54,0,5.08-.01,7.62-1.18.02-2.36.04-3.54.06-.02,1.99-.04,3.98-.05,5.97h6.25s0,24.22,0,24.22"/>
        <rect class="cls-1" x="306.55" y="139.12" width=".17" height=".17" transform="translate(-8.61 257.62) rotate(-45)"/>
      </g>
    </g>
    <path class="cls-1" d="M131.24,177.19l-36.33.02c2.45-8.1,9.66-13.52,17.96-13.72,8.18.1,15.85,5.03,18.37,13.7Z"/>
  </g>
</svg>